HIERARCHY
ROOT Pelvis
{
	OFFSET 0.000000 0.000000 0.000000
	CHANNELS 6 Xposition Yposition Zposition Xrotation Yrotation Zrotation
	JOINT LeftUpLeg_virtual
	{
		OFFSET 0.000000 0.000000 0.000000
		CHANNELS 3 Xrotation Yrotation Zrotation
		JOINT LeftUpLeg
		{
			OFFSET 18.735201 -5.666702 -4.541200
			CHANNELS 3 Xrotation Yrotation Zrotation
			JOINT LeftLeg
			{
				OFFSET -0.021200 -31.938179 0.493100
				CHANNELS 3 Xrotation Yrotation Zrotation
				JOINT LeftFoot
				{
					OFFSET 0.021200 -31.938179 -4.336299
					CHANNELS 3 Xrotation Yrotation Zrotation
					JOINT LeftToeBase
					{
						OFFSET 0.943001 -26.722000 15.023500
						CHANNELS 3 Xrotation Yrotation Zrotation
						End Site
						{
							OFFSET 0 0 0
						}
					}
				}
			}
		}
	}
	JOINT RightUpLeg_virtual
	{
		OFFSET 0.000000 0.000000 0.000000
		CHANNELS 3 Xrotation Yrotation Zrotation
		JOINT RightUpLeg
		{
			OFFSET -18.735201 -5.666702 -4.541200
			CHANNELS 3 Xrotation Yrotation Zrotation
			JOINT RightLeg
			{
				OFFSET 0.018946 -31.938133 0.493100
				CHANNELS 3 Xrotation Yrotation Zrotation
				JOINT RightFoot
				{
					OFFSET -0.018946 -31.938126 -4.336299
					CHANNELS 3 Xrotation Yrotation Zrotation
					JOINT RightToeBase
					{
						OFFSET -0.943001 -26.722004 15.023500
						CHANNELS 3 Xrotation Yrotation Zrotation
						End Site
						{
							OFFSET 0 0 0
						}
					}
				}
			}
		}
	}
	JOINT Hips_virtual
	{
		OFFSET 0.000000 0.000000 0.000000
		CHANNELS 3 Xrotation Yrotation Zrotation
		JOINT Hips
		{
			OFFSET -0.000000 -0.000000 -0.000000
			CHANNELS 3 Xrotation Yrotation Zrotation
			JOINT Spine
			{
				OFFSET 0.000000 10.199997 -0.299500
				CHANNELS 3 Xrotation Yrotation Zrotation
				JOINT Spine1
				{
					OFFSET 0.000000 11.900002 -1.516600
					CHANNELS 3 Xrotation Yrotation Zrotation
					JOINT Spine2
					{
						OFFSET 0.000000 13.600006 -2.842500
						CHANNELS 3 Xrotation Yrotation Zrotation
						JOINT Neck_virtual
						{
							OFFSET 0.000000 0.000000 0.000000
							CHANNELS 3 Xrotation Yrotation Zrotation
							JOINT Neck
							{
								OFFSET 0.000000 9.624100 -2.890100
								CHANNELS 3 Xrotation Yrotation Zrotation
								JOINT Head
								{
									OFFSET 0.000000 14.068802 -1.351900
									CHANNELS 3 Xrotation Yrotation Zrotation
									End Site
									{
										OFFSET 0 0 0
									}
								}
							}
						}
						JOINT LeftShoulder_virtual
						{
							OFFSET 0.000000 0.000000 0.000000
							CHANNELS 3 Xrotation Yrotation Zrotation
							JOINT LeftShoulder
							{
								OFFSET 15.263000 10.923401 -0.547700
								CHANNELS 3 Xrotation Yrotation Zrotation
								JOINT LeftArm
								{
									OFFSET 25.438599 -2.830597 -13.032500
									CHANNELS 3 Xrotation Yrotation Zrotation
									JOINT LeftForeArm
									{
										OFFSET 29.960503 0.000000 0.000000
										CHANNELS 3 Xrotation Yrotation Zrotation
										JOINT LeftHand
										{
											OFFSET 27.849251 0.000000 0.000000
											CHANNELS 3 Xrotation Yrotation Zrotation
											End Site
											{
												OFFSET 0 0 0
											}
										}
									}
								}
							}
						}
						JOINT RightShoulder_virtual
						{
							OFFSET 0.000000 0.000000 0.000000
							CHANNELS 3 Xrotation Yrotation Zrotation
							JOINT RightShoulder
							{
								OFFSET -15.263000 10.923401 -0.547700
								CHANNELS 3 Xrotation Yrotation Zrotation
								JOINT RightArm
								{
									OFFSET -25.438599 -2.830597 -13.032500
									CHANNELS 3 Xrotation Yrotation Zrotation
									JOINT RightForeArm
									{
										OFFSET -29.960503 0.000000 0.000000
										CHANNELS 3 Xrotation Yrotation Zrotation
										JOINT RightHand
										{
											OFFSET -27.849251 0.000000 0.000000
											CHANNELS 3 Xrotation Yrotation Zrotation
											End Site
											{
												OFFSET 0 0 0
											}
										}
									}
								}
							}
						}
					}
				}
			}
		}
	}
}
MOTION
Frames: 13
Frame Time: 0.03333333
1.650270 79.458946 1.227249 0.000000 0.000000 0.000000 26.094797 -0.006118 -27.996841 -86.711096 -10.400888 19.999050 75.932429 -6.951713 8.401272 -9.881337 -4.283074 -4.022304 0.000000 0.000000 0.000000 25.565934 1.235034 -29.045014 -34.363522 -22.985422 8.786945 39.748132 -4.826371 1.078141 -10.581535 -11.465279 1.568446 0.000000 0.000000 0.000000 25.857872 0.645277 -28.459947 0.133411 -1.149443 -0.487816 11.994825 0.475181 -17.897877 6.824167 3.657528 -10.815580 0.000000 0.000000 0.000000 5.148136 3.179003 -10.907605 -0.742110 2.088165 -1.322616 0.000000 0.000000 0.000000 4.916076 3.545821 -10.734406 1.620374 -2.807942 18.565499 -59.243408 -42.857460 -95.017439 1.370417 -46.158224 -0.246457 0.000000 0.000000 0.000000 5.962524 3.045143 -11.120870 -0.065915 -3.222042 -0.311923 16.478236 58.226816 -0.901625 20.957390 82.138598 -18.545897 0.000000 0.000000 0.000000 
1.797096 79.555771 1.113121 0.000000 0.000000 0.000000 25.642533 -0.724321 -27.196154 -86.385070 -9.222920 20.573973 75.683584 -6.794024 8.493795 -10.115357 -3.955587 -3.246272 0.000000 0.000000 0.000000 25.182926 0.455579 -28.310683 -34.974533 -22.620272 8.429717 40.141954 -4.795022 1.123516 -10.448905 -11.209741 1.801577 0.000000 0.000000 0.000000 25.507683 0.006390 -27.739333 0.168107 -1.022497 -0.539726 12.037330 0.376988 -17.824799 6.912416 3.564417 -10.680207 0.000000 0.000000 0.000000 5.210433 3.088327 -10.791397 -0.162561 1.993623 -1.004151 0.000000 0.000000 0.000000 5.108733 3.447008 -10.606477 1.637076 -3.075927 18.194704 -57.866947 -42.754921 -94.243039 1.294991 -46.999484 -0.233741 0.000000 0.000000 0.000000 6.069207 2.945644 -11.009136 0.011950 -2.839442 -1.060031 15.694241 59.231831 0.972965 18.622741 80.746933 -15.946021 0.000000 0.000000 0.000000 
1.876029 79.680771 0.966324 0.000000 0.000000 0.000000 25.202339 -1.381385 -26.458870 -85.796096 -8.161654 21.169147 75.329719 -6.819870 8.737560 -10.768508 -3.763529 -2.962342 0.000000 0.000000 0.000000 24.756360 -0.213843 -27.604500 -35.490985 -22.123703 8.217031 40.530090 -4.716096 1.173583 -10.228966 -11.013893 2.253829 0.000000 0.000000 0.000000 25.098599 -0.623487 -27.011211 0.191172 -0.923582 -0.602331 12.025952 0.306992 -17.670324 6.975510 3.440179 -10.485643 0.000000 0.000000 0.000000 5.281258 2.968101 -10.604109 0.436026 1.933546 -0.708239 0.000000 0.000000 0.000000 5.318539 3.327553 -10.412545 1.642286 -3.207679 17.506087 -56.779520 -42.526001 -93.542521 1.253369 -47.187530 -0.143412 0.000000 0.000000 0.000000 6.150279 2.827278 -10.837377 0.129906 -2.256314 -2.057484 14.858556 59.979880 2.800877 16.513326 79.284501 -13.567325 0.000000 0.000000 0.000000 
1.864445 79.838669 0.780907 0.000000 0.000000 0.000000 24.769667 -2.009297 -25.723322 -85.111390 -7.155588 21.852726 74.918016 -6.990469 8.991159 -11.507738 -3.680375 -3.176311 0.000000 0.000000 0.000000 24.351595 -0.803252 -26.865489 -36.071366 -21.532188 7.978360 40.946909 -4.604940 1.241843 -9.894739 -10.876789 2.933545 0.000000 0.000000 0.000000 24.632736 -1.275325 -26.221093 0.240183 -0.932822 -0.607128 12.036025 0.270854 -17.478055 7.043937 3.310770 -10.248168 0.000000 0.000000 0.000000 5.440990 2.843938 -10.364096 1.026304 1.909959 -0.450687 0.000000 0.000000 0.000000 5.579868 3.206712 -10.170383 1.638759 -3.207790 16.649430 -55.964439 -42.529324 -92.753416 1.354495 -47.235249 0.086197 0.000000 0.000000 0.000000 6.248590 2.720832 -10.608558 0.277830 -1.460861 -3.176524 14.159961 60.485696 4.224204 14.654702 77.826085 -11.442993 0.000000 0.000000 0.000000 
1.784096 80.027977 0.593296 0.000000 0.000000 0.000000 24.322913 -2.703305 -24.944689 -84.601209 -6.106634 22.733265 74.700249 -7.020880 9.074407 -11.853459 -3.381659 -3.415415 0.000000 0.000000 0.000000 23.948692 -1.510828 -26.034996 -36.802517 -20.942757 7.624202 41.441640 -4.548808 1.358720 -9.503158 -10.855877 3.627887 0.000000 0.000000 0.000000 24.150036 -2.047221 -25.320951 0.225391 -1.023909 -0.587294 12.130000 0.280917 -17.287677 7.175488 3.196594 -10.007243 0.000000 0.000000 0.000000 5.715867 2.740460 -10.126800 1.568905 1.914445 -0.234124 0.000000 0.000000 0.000000 5.919128 3.111844 -9.927513 1.627479 -3.142737 15.850866 -55.152934 -42.947140 -91.735362 1.622036 -47.643944 0.444653 0.000000 0.000000 0.000000 6.429089 2.650202 -10.367915 0.440599 -0.547292 -4.200077 13.771326 60.822951 5.147873 13.127180 76.516424 -9.706249 0.000000 0.000000 0.000000 
1.642404 80.249557 0.316967 0.000000 0.000000 0.000000 23.874233 -3.603553 -24.059480 -84.233185 -5.075378 23.635292 74.542629 -6.810593 9.032659 -12.011081 -2.839117 -3.554193 0.000000 0.000000 0.000000 23.602724 -2.394971 -25.089981 -37.672953 -20.354462 7.230601 41.829465 -4.622152 1.427480 -9.018684 -10.971274 4.121194 0.000000 0.000000 0.000000 23.740558 -2.997260 -24.307757 0.202369 -1.186128 -0.600081 12.351463 0.364823 -17.105061 7.372399 3.130021 -9.814042 0.000000 0.000000 0.000000 6.083291 2.687687 -9.949125 2.032067 1.927883 -0.055134 0.000000 0.000000 0.000000 6.312892 3.071690 -9.733178 1.641936 -3.067254 15.387081 -54.047540 -43.622239 -90.390191 2.050668 -48.748375 0.959408 0.000000 0.000000 0.000000 6.699625 2.627312 -10.170206 0.591434 0.368070 -4.929293 13.487205 61.014742 5.940791 12.015613 75.483330 -8.441742 0.000000 0.000000 0.000000 
1.485562 80.508476 -0.052116 0.000000 0.000000 0.000000 23.538787 -4.814240 -23.019375 -83.722929 -4.303014 24.221772 73.986911 -6.502271 9.093301 -12.335243 -2.254105 -3.810788 0.000000 0.000000 0.000000 23.362281 -3.507235 -24.026495 -38.519794 -19.722393 6.940940 41.799183 -4.846466 1.320900 -8.544210 -11.129057 4.332734 0.000000 0.000000 0.000000 23.500926 -4.095013 -23.220510 0.158471 -1.323777 -0.597311 12.673964 0.513021 -16.895917 7.622994 3.126548 -9.697922 0.000000 0.000000 0.000000 6.510806 2.697253 -9.856625 2.388977 1.929990 0.100684 0.000000 0.000000 0.000000 6.733581 3.092982 -9.613529 1.722315 -3.080085 15.387457 -52.613009 -44.156835 -88.881040 2.505831 -50.203188 1.554649 0.000000 0.000000 0.000000 7.046060 2.657507 -10.044997 0.707491 1.064596 -5.244590 13.303252 61.155984 6.838796 11.274880 74.628122 -7.626157 0.000000 0.000000 0.000000 
1.341143 80.786545 -0.489254 0.000000 0.000000 0.000000 23.467826 -6.194540 -21.879415 -82.896886 -3.832263 24.475380 72.868891 -6.153398 9.327011 -12.712389 -1.690873 -4.356151 0.000000 0.000000 0.000000 23.291838 -4.849639 -22.854595 -39.314839 -19.042646 6.835598 41.373092 -5.153243 1.001399 -8.128152 -11.183327 4.396936 0.000000 0.000000 0.000000 23.500208 -5.287895 -22.088709 0.108016 -1.362342 -0.678147 13.029266 0.711910 -16.612461 7.901439 3.174780 -9.629331 0.000000 0.000000 0.000000 6.921064 2.757563 -9.812426 2.635716 1.906959 0.244572 0.000000 0.000000 0.000000 7.121565 3.174912 -9.543172 1.878509 -3.232364 15.822242 -51.026103 -44.233548 -87.557021 2.806738 -51.383243 2.074652 0.000000 0.000000 0.000000 7.418548 2.724034 -9.969712 0.776028 1.417466 -5.126609 13.350733 61.478198 7.713310 10.691791 73.606886 -7.041162 0.000000 0.000000 0.000000 
1.207961 81.050415 -0.966141 0.000000 0.000000 0.000000 23.690105 -7.526010 -20.692792 -81.848076 -3.515517 24.628930 71.307605 -5.723451 9.610506 -12.977146 -1.189482 -5.292002 0.000000 0.000000 0.000000 23.419739 -6.183618 -21.628989 -40.221806 -18.359699 6.841311 40.867604 -5.465865 0.478074 -7.564542 -10.976627 4.523739 0.000000 0.000000 0.000000 23.777383 -6.447539 -20.950471 0.047650 -1.394639 -0.778882 13.339334 0.932958 -16.202653 8.136916 3.256806 -9.532552 0.000000 0.000000 0.000000 7.257978 2.850778 -9.729509 2.779026 1.853733 0.375785 0.000000 0.000000 0.000000 7.430308 3.284527 -9.448423 2.131178 -3.600598 16.510165 -49.476869 -43.840064 -86.623779 2.816923 -51.974908 2.385045 0.000000 0.000000 0.000000 7.705449 2.811991 -9.854004 0.794278 1.414769 -4.683142 13.587064 62.260145 8.399495 10.162448 72.054589 -6.546560 0.000000 0.000000 0.000000 
1.055683 81.282791 -1.435825 0.000000 0.000000 0.000000 24.185700 -8.574067 -19.533678 -80.848690 -3.289463 24.838249 69.627748 -5.143357 9.809185 -12.949643 -0.735784 -6.463980 0.000000 0.000000 0.000000 23.748026 -7.316685 -20.387466 -41.365275 -17.797067 6.859180 40.562260 -5.766761 -0.190436 -6.797671 -10.457960 4.763935 0.000000 0.000000 0.000000 24.297715 -7.455488 -19.800262 -0.084918 -1.438878 -0.867764 13.530964 1.124187 -15.654157 8.287118 3.340961 -9.310816 0.000000 0.000000 0.000000 7.475565 2.958010 -9.512693 2.833105 1.773322 0.498054 0.000000 0.000000 0.000000 7.641646 3.392554 -9.246757 2.451891 -4.323996 17.200624 -48.078951 -43.290012 -86.065076 2.415098 -51.891689 2.308376 0.000000 0.000000 0.000000 7.852323 2.909177 -9.612530 0.790380 1.109931 -4.058018 14.494841 63.728178 8.103777 9.515668 69.768825 -5.985652 0.000000 0.000000 0.000000 
0.840523 81.462128 -1.936325 0.000000 0.000000 0.000000 24.818013 -9.239168 -18.398441 -80.152803 -3.114006 25.132656 68.353070 -4.310800 9.887900 -12.510417 -0.205315 -7.507953 0.000000 0.000000 0.000000 24.251106 -8.155928 -19.128435 -42.825829 -17.406322 6.808799 40.628028 -6.097259 -0.954113 -6.082681 -9.693318 5.009107 0.000000 0.000000 0.000000 24.972165 -8.240085 -18.595873 -0.198931 -1.523929 -0.929675 13.585852 1.264087 -15.009423 8.307825 3.409124 -8.909307 0.000000 0.000000 0.000000 7.508922 3.064591 -9.116384 2.809413 1.675507 0.596511 0.000000 0.000000 0.000000 7.744080 3.479465 -8.887040 2.740254 -5.343248 17.718127 -46.479594 -43.190711 -85.457401 1.658772 -51.711304 1.827542 0.000000 0.000000 0.000000 7.854851 3.014304 -9.196220 0.756322 0.703759 -3.388917 16.762809 65.734219 5.948388 8.736564 66.985933 -5.312051 0.000000 0.000000 0.000000 
0.537781 81.620224 -2.413521 0.000000 0.000000 0.000000 25.455131 -9.727317 -17.170165 -79.627452 -2.942575 25.386883 67.551759 -3.276092 9.929964 -11.923885 0.364453 -8.378334 0.000000 0.000000 0.000000 24.815093 -8.754376 -17.782901 -44.529668 -17.129098 6.662576 40.978492 -6.465192 -1.875419 -5.553122 -8.735836 5.204979 0.000000 0.000000 0.000000 25.703132 -8.808795 -17.269355 -0.332910 -1.704167 -0.996287 13.505658 1.356948 -14.329846 8.180646 3.462943 -8.354996 0.000000 0.000000 0.000000 7.360012 3.164242 -8.582551 2.724048 1.565685 0.662458 0.000000 0.000000 0.000000 7.766535 3.539570 -8.388976 2.887105 -6.545671 17.956521 -44.237455 -43.889734 -84.272315 0.629029 -51.819047 1.009631 0.000000 0.000000 0.000000 7.733138 3.126225 -8.632954 0.694204 0.306356 -2.736691 20.931188 67.689661 1.494592 8.005243 64.408438 -4.692456 0.000000 0.000000 0.000000 
0.182653 81.786591 -2.807247 0.000000 0.000000 0.000000 26.007328 -10.290401 -15.729253 -78.943449 -2.768221 25.432259 66.829515 -2.238832 10.040880 -11.460605 0.792307 -9.339399 0.000000 0.000000 0.000000 25.345770 -9.391172 -16.217441 -46.311025 -16.919745 6.393071 41.442566 -6.831402 -3.004174 -5.260098 -7.625286 5.376642 0.000000 0.000000 0.000000 26.330104 -9.342229 -15.737856 -0.407216 -1.870695 -1.089246 13.312857 1.409066 -13.682999 7.946126 3.501974 -7.735767 0.000000 0.000000 0.000000 7.072867 3.253288 -8.000836 2.601367 1.454741 0.699443 0.000000 0.000000 0.000000 7.714711 3.584178 -7.821612 2.693000 -7.624632 17.923656 -41.090247 -45.356284 -82.277797 -0.578531 -52.417689 -0.041742 0.000000 0.000000 0.000000 7.577940 3.235197 -8.011671 0.614723 -0.035778 -2.111307 26.884171 68.995204 -4.754538 7.264176 62.718608 -4.085400 0.000000 0.000000 0.000000 
